DataType=double
version=3
OpenSimVersion=4.5
endheader
time	ground_force_2_vx	ground_force_2_vy	ground_force_2_vz	ground_force_2_px	ground_force_2_py	ground_force_2_pz	ground_moment_2_mx	ground_moment_2_my	ground_moment_2_mz	ground_force_1_vx	ground_force_1_vy	ground_force_1_vz	ground_force_1_px	ground_force_1_py	ground_force_1_pz	ground_moment_1_mx	ground_moment_1_my	ground_moment_1_mz
2.76	103.8271672009213	667.8104421445141	-30.98901748159363	0.5431381965184732	0.01038340430110678	0.5719100655828687	9.281652466097317	-0.2818650715010191	27.481675111639	-2.600014516484917	73.11517696005154	-5.101129992201766	1.099150676859411	0.01038340430110678	0.3936409539729646	-2.121593560108082	-0.6440672938238808	-8.847372808062319
2.765	106.7719976388458	655.3385074542348	-29.90367756373121	0.5383753173197664	0.01038340430110678	0.5721342832288653	9.490452855917074	-0.5351290078803314	26.61087291025597	-3.70930133649204	93.73005908606785	-5.855093015966894	1.096816745080597	0.01038340430110678	0.3943613747671661	-2.612464234836688	-0.7607196861427911	-11.1103445438576
2.77	109.2949538330026	641.0911647029404	-28.63268208619936	0.5336999994976184	0.01038340430110678	0.572356539910397	9.648924520113342	-0.7762563550743479	25.65622941747923	-5.037205796611048	116.9296207691218	-6.594631930519338	1.094198954516276	0.01038340430110678	0.3950669571858485	-3.149108236999459	-0.8821194087494956	-13.62463826402027
2.775	111.3090640163312	625.012190759467	-27.17796571088331	0.5291210591778228	0.01038340430110678	0.5725714514912835	9.748549982357758	-1.000790380114295	24.6206117773198	-6.617922831673532	142.6548743884669	-7.280904745980838	1.091319307912107	0.01038340430110678	0.3957522377458691	-3.72580515652874	-1.004757499114271	-16.37513769150616
2.78	112.724063569189	607.062509637612	-25.54737330502864	0.5246482073522913	0.01038340430110678	0.5727728711258285	9.782168904292039	-1.204451590803684	23.50836863086814	-8.489198207402618	170.7789870328245	-7.864569974395426	1.088198615496258	0.01038340430110678	0.3964124981445373	-4.334830019589909	-1.123949166289814	-19.33835127582941
2.785	113.4508788917472	587.2254877945495	-23.75446795038783	0.5202920918168705	0.01038340430110678	0.5729539918002392	9.744400810936575	-1.383312442043044	22.32540048886037	-10.6876826558353	201.1093306519704	-8.286470482243871	1.084856381981007	0.01038340430110678	0.3970437756846042	-4.966681275648022	-1.233734647912561	-22.48277539351511
2.79	113.4069671386637	565.5137925353268	-21.81803989208131	0.5160643313652324	0.01038340430110678	0.5731074896632954	9.631955018331158	-1.533978801988624	21.07918763770582	-13.24321577566569	233.3926258558704	-8.479989663756307	1.081310727092739	0.01038340430110678	0.3976428554376911	-5.610392478513681	-1.326938190456969	-25.76967442455825
2.795	112.5220800377869	541.9770524132474	-19.76144055506415	0.5119775400794833	0.01038340430110678	0.5732257065645951	9.443804674935432	-1.653771674516679	19.77874746568308	-16.17386500647005	267.3219947582668	-8.374954829586972	1.077578338088763	0.01038340430110678	0.3982072456610981	-6.253866224535498	-1.395441362520387	-29.15413996899196
2.8	110.7439792208017	516.7087099897088	-17.61177660993225	0.5080453392868949	0.01038340430110678	0.5733008679814316	9.18124264977922	-1.740893227203624	18.43451096784643	-19.48277856804837	302.5462418808537	-7.902764677241521	1.073674452332365	0.01038340430110678	0.3987351385202283	-6.884277360594867	-1.430671775529047	-32.58642963427042
2.805	108.0435704162971	489.8502775138305	-15.39896398587304	0.5042823545200483	0.01038340430110678	0.5733253302049826	8.847848427419134	-1.794553059566007	17.05813117474296	-23.15690767487165	338.6817578412814	-7.002204546578351	1.069612867690695	0.01038340430110678	0.3992253585818581	-7.488592785252941	-1.424243508523221	-36.01359880777606
2.81	104.4188500928701	461.5917510956851	-13.15471505978324	0.5007041946612822	0.01038340430110678	0.5732918484153001	8.449378259171752	-1.815030895077084	15.66224333104434	-27.16710710097248	375.3259956262669	-5.625191885706769	1.06540597828094	0.01038340430110678	0.3996773018161101	-8.054127919603264	-1.368639258068161	-39.38130551471239
2.815	99.89712183198471	432.1677672940663	-10.91161182049682	0.4973274104117801	0.01038340430110678	0.5731938552616455	7.993570014255752	-1.803660781250688	14.26019457381899	-31.46915831667601	412.0710127269066	-3.741700829190926	1.061064832903178	0.01038340430110678	0.4000908679715321	-8.569023228517507	-1.257828893709591	-42.63561513442068
2.82	94.53520221024533	401.8500566720156	-8.702422986439359	0.494169429342755	0.01038340430110678	0.5730257379451982	7.489837009035825	-1.76273513964026	12.86575919411951	-36.00553328876791	448.5164412166368	-1.343321472468713	1.056599213347037	0.01038340430110678	0.4004663891722338	-9.022643742433804	-1.087761510923023	-45.72470901120603
2.825	88.41768284191541	370.9374165420979	-6.559714464537819	0.4912484650991207	0.01038340430110678	0.5727831007334391	6.948821270913315	-1.695339527339105	11.49285621883058	-40.70776381881983	484.2812155759382	1.554916800889046	1.052017729628964	0.01038340430110678	0.4008045574413969	-9.405960643471204	-0.8566963528869428	-48.60042880181388
